# xmcd
#
# Track frame offsets:
# 150
# 19993
# 41178
# 64941
# 87565
# 108655
# 126663
# 148231
# 165039
# 186192
# 202579
# 212362
# 231815
# 253158
# 269333
# 289586
# 297700
# 316389
# 332038
# 346361
#
# Disc length: 4764 seconds
#
# Revision: 0
# Processed by: cddbd v1.4PL0 Copyright (c) Steve Scherf et al.
# Submitted via: Audion 3.0.2 (http://www.panic.com/audion/)
#
DISCID=40129a14
DTITLE=Various Artist - 2003' BLUES TOP 20
DYEAR=1900
DGENRE=
TTITLE0=JOHNNY LANG_louise
TTITLE1=CHRIS REA_missisippi
TTITLE2=JOE COCKER_respect yourself
TTITLE3=OMAR and THE HOWLERS_life without you
TTITLE4=ROBERT CRAY_back door slam
TTITLE5=TINSLEY ELLIS_real bad way
TTITLE6=CHARLIE MUSSELWHITE_walking alone
TTITLE7=TAB BENOIT_her mind is gone
TTITLE8=PETER GREEN_i'm ready for you
TTITLE9=B.B.KING_tomorrow night
TTITLE10=JACK JOHNSON_gone
TTITLE11=NORAH JONES_deceptively yours
TTITLE12=ERIC BELL BAND_pretty woman
TTITLE13=DEBBIE DAVIES_chicago line
TTITLE14=TOM WAITS_alice
TTITLE15=OMAR and THE HOWLERS_linin' track
TTITLE16=BONNIE RAITT_fool's game
TTITLE17=JAMES COTTON BLUES BAND_don't start me talking
TTITLE18=DUKE ROBILLARD_living with the blues
TTITLE19=ROBERT PALMER_mama talk to your daughter
EXTD=
EXTT0=
EXTT1=
EXTT2=
EXTT3=
EXTT4=
EXTT5=
EXTT6=
EXTT7=
EXTT8=
EXTT9=
EXTT10=
EXTT11=
EXTT12=
EXTT13=
EXTT14=
EXTT15=
EXTT16=
EXTT17=
EXTT18=
EXTT19=
PLAYORDER=
